# xmcd
#
# Track frame offsets:
#	150
#	19049
#	35438
#	51810
#	67083
#	83898
#	99779
#	117493
#	137631
#	154900
#	171258
#	189258
#	204981
#	221294
#	237457
#
# Disc length: 3452 seconds
#
# Revision: 1
# Processed by: cddbd v1.5.2PL0 Copyright (c) Steve Scherf et al.
# Submitted via: audiograbber 1.83.01
#
DISCID=c90d7a0f
DTITLE=Mississippi Kings - Hip Shakin'
DYEAR=2014
DGENRE=Blues
TTITLE0=Poor Black Mattie
TTITLE1=Love At First Sight
TTITLE2=Come Back To Me
TTITLE3=Everybody Ought To Change Sometime
TTITLE4=Green River
TTITLE5=Big Town Playboy
TTITLE6=Set Me Free
TTITLE7=Bad Boy
TTITLE8=I Can't Be Satisfied
TTITLE9=The Big Run
TTITLE10=Going Down The River
TTITLE11=Going Train Blues
TTITLE12=Black Rat Swing
TTITLE13=New Shake 'Em On Down
TTITLE14=Shake Your Hips
EXTD=
EXTT0=
EXTT1=
EXTT2=
EXTT3=
EXTT4=
EXTT5=
EXTT6=
EXTT7=
EXTT8=
EXTT9=
EXTT10=
EXTT11=
EXTT12=
EXTT13=
EXTT14=
PLAYORDER=
